<svg version="1.1" id="Layer_1" xmlns="http://www.w3.org/2000/svg" xmlns:xlink="http://www.w3.org/1999/xlink" x="0px" y="0px"
	 width="100%" viewBox="0 0 800 800" enable-background="new 0 0 800 800" xml:space="preserve">
<path fill="#000000" opacity="1.000000" stroke="none" 
	d="
M466.000000,801.000000 
	C310.666656,801.000000 155.833328,801.000000 1.000000,801.000000 
	C1.000000,534.333313 1.000000,267.666656 1.000000,1.000000 
	C267.666656,1.000000 534.333313,1.000000 801.000000,1.000000 
	C801.000000,267.666656 801.000000,534.333313 801.000000,801.000000 
	C689.500000,801.000000 578.000000,801.000000 466.000000,801.000000 
M558.608337,210.656921 
	C557.109009,211.580994 555.376465,212.274445 554.173157,213.491272 
	C552.859924,214.819275 551.148865,216.623901 551.134155,218.234680 
	C550.934570,240.059738 551.027771,261.887299 550.965759,283.713989 
	C550.957886,286.482361 551.644531,287.564728 554.752930,288.137329 
	C568.603943,290.688995 582.358704,293.759430 596.160156,296.584351 
	C609.704346,299.356567 623.262939,302.058716 637.270447,304.883392 
	C622.270691,274.472107 607.514587,244.554855 592.624512,214.365936 
	C617.676697,211.732422 642.099731,209.165070 666.522705,206.597717 
	C666.580933,206.332962 666.639160,206.068222 666.697388,205.803467 
	C639.473694,194.445145 612.250061,183.086807 584.891602,171.672241 
	C596.048645,138.380096 607.103455,105.393120 618.576843,71.157066 
	C585.703674,91.098404 554.230530,110.190506 522.565918,129.398743 
	C511.453247,103.662598 500.560486,78.435760 489.667725,53.208931 
	C489.310791,53.267170 488.953827,53.325409 488.596863,53.383652 
	C484.662323,80.862762 480.727753,108.341873 476.690857,136.535690 
	C449.110687,121.465935 421.932861,106.616013 393.770874,91.228371 
	C404.819519,120.234337 415.408813,148.034439 425.316223,176.161179 
	C425.041626,176.646744 424.662842,177.584656 424.508270,177.549042 
	C422.626923,177.115707 420.778809,176.068512 418.921448,176.067230 
	C308.778168,175.991989 198.634827,175.999924 88.491486,175.999924 
	C86.736427,175.999924 84.981361,175.999924 83.303558,175.999924 
	C83.303558,354.073975 83.303558,531.444092 83.303558,708.726929 
	C238.989288,708.726929 394.371216,708.726929 550.000061,708.726929 
	C550.000061,531.022644 550.000061,353.591278 550.805420,176.456528 
	C550.805420,188.430466 550.805420,200.404404 550.805420,212.658585 
	C553.602051,211.636703 555.839478,210.819138 558.608337,210.656921 
z"/>
<path fill="#FFFFFF" opacity="1.000000" stroke="none" 
	d="
M550.000061,176.159912 
	C550.000061,353.591278 550.000061,531.022644 550.000061,708.726929 
	C394.371216,708.726929 238.989288,708.726929 83.303558,708.726929 
	C83.303558,531.444092 83.303558,354.073975 83.303558,175.999924 
	C84.981361,175.999924 86.736427,175.999924 88.491486,175.999924 
	C198.634827,175.999924 308.778168,175.991989 418.921448,176.067230 
	C420.778809,176.068512 422.626923,177.115707 424.508270,177.549042 
	C424.662842,177.584656 425.041626,176.646744 426.120331,176.065735 
	C447.617004,175.925125 468.309601,175.879959 489.251587,175.905365 
	C489.667114,175.928497 489.833191,175.881042 490.463135,175.904938 
	C510.618011,176.037491 530.309021,176.098694 550.000061,176.159912 
M201.933121,607.967468 
	C206.958237,607.923157 211.983368,607.878845 217.932251,607.972961 
	C222.959030,607.926147 227.985794,607.879333 233.939163,607.969177 
	C240.630249,607.923889 247.321350,607.878662 254.939026,607.971680 
	C262.630768,607.925842 270.322510,607.880005 278.940796,607.971558 
	C288.297485,607.928223 297.654144,607.884888 307.935608,607.981079 
	C313.293579,607.932129 318.651581,607.883179 324.935730,607.979004 
	C387.934692,607.979004 450.933624,607.979004 514.000000,607.979004 
	C514.000000,564.996155 514.015503,522.715942 513.992432,480.435669 
	C513.983093,463.293579 513.889587,446.151550 513.997620,428.087128 
	C513.945618,423.061676 513.893616,418.036255 514.005005,412.084747 
	C513.948364,403.394470 513.891724,394.704193 514.000366,385.089050 
	C513.944641,377.730072 513.888916,370.371063 513.994751,362.086029 
	C513.940369,355.728302 513.886047,349.370544 513.991943,342.091003 
	C513.939392,337.396881 513.886902,332.702759 513.988770,327.086639 
	C513.935303,322.394257 513.881836,317.701904 513.981628,312.098206 
	C513.931213,308.402222 513.880859,304.706207 513.983704,300.090973 
	C513.935242,295.732178 513.886841,291.373383 513.993164,286.086853 
	C513.938110,278.064667 513.883118,270.042480 513.984924,261.092194 
	C513.933228,253.403610 513.881592,245.715027 513.986267,237.099564 
	C513.986267,230.505295 513.986267,223.911026 513.986267,217.166275 
	C511.598969,217.166275 509.810913,217.166275 507.092590,217.017670 
	C499.736359,217.067673 492.380157,217.117676 484.092865,217.026108 
	C478.070892,217.068390 472.048950,217.110657 465.094574,217.021530 
	C456.742096,217.062363 448.389648,217.103195 439.102142,217.023453 
	C430.081299,217.052979 421.060486,217.082504 411.129852,217.013031 
	C402.097382,217.037247 393.064911,217.061462 383.091705,217.015503 
	C377.402161,217.024963 371.712616,217.034439 365.083527,217.009415 
	C357.728729,217.014023 350.373901,217.018631 342.083466,217.004395 
	C338.587463,217.004028 335.076538,216.813187 331.601898,217.085602 
	C329.925110,217.217056 327.988922,217.834381 326.736389,218.898285 
	C322.314972,222.653809 318.108276,226.665451 313.874847,230.638245 
	C302.496063,241.316498 291.140015,252.018997 279.785187,262.722687 
	C262.147400,279.348999 244.525101,295.991730 226.882599,312.613037 
	C215.888077,322.971191 204.848740,333.281860 193.864410,343.650818 
	C175.391235,361.089081 157.210388,378.850006 138.354858,395.863739 
	C131.094116,402.415344 127.113380,409.265808 129.016876,419.953247 
	C129.025116,426.975677 129.033340,433.998138 129.020111,441.951630 
	C129.040939,447.310577 129.061768,452.669495 129.043411,458.956024 
	C129.065872,467.317017 129.088333,475.677979 129.056458,484.969757 
	C129.085678,493.325592 129.114899,501.681396 129.059006,510.964508 
	C129.089890,518.984253 129.120758,527.004028 129.052048,535.951660 
	C129.089935,541.641296 129.127808,547.330872 129.056808,553.949097 
	C129.093384,560.640320 129.129944,567.331604 129.057724,574.854980 
	C129.094925,582.577698 129.132126,590.300354 129.056396,598.931702 
	C129.056396,601.854309 129.056396,604.776978 129.056396,607.828857 
	C135.454544,607.828857 141.236740,607.828857 147.946732,607.950745 
	C156.302872,607.913025 164.659027,607.875244 173.938156,607.963867 
	C178.628769,607.919312 183.319382,607.874756 188.926880,607.965210 
	C192.954483,607.919678 196.982071,607.874146 201.933121,607.967468 
z"/>
<path fill="#FAE319" opacity="1.000000" stroke="none" 
	d="
M489.002167,175.834778 
	C468.309601,175.879959 447.617004,175.925125 426.461304,175.902420 
	C415.408813,148.034439 404.819519,120.234337 393.770874,91.228371 
	C421.932861,106.616013 449.110687,121.465935 476.690857,136.535690 
	C480.727753,108.341873 484.662323,80.862762 488.596863,53.383652 
	C488.953827,53.325409 489.310791,53.267170 489.667725,53.208931 
	C500.560486,78.435760 511.453247,103.662598 522.565918,129.398743 
	C554.230530,110.190506 585.703674,91.098404 618.576843,71.157066 
	C607.103455,105.393120 596.048645,138.380096 584.891602,171.672241 
	C612.250061,183.086807 639.473694,194.445145 666.697388,205.803467 
	C666.639160,206.068222 666.580933,206.332962 666.522705,206.597717 
	C642.099731,209.165070 617.676697,211.732422 592.624512,214.365936 
	C607.514587,244.554855 622.270691,274.472107 637.270447,304.883392 
	C623.262939,302.058716 609.704346,299.356567 596.160156,296.584351 
	C582.358704,293.759430 568.603943,290.688995 554.752930,288.137329 
	C551.644531,287.564728 550.957886,286.482361 550.965759,283.713989 
	C551.027771,261.887299 550.934570,240.059738 551.134155,218.234680 
	C551.148865,216.623901 552.859924,214.819275 554.173157,213.491272 
	C555.376465,212.274445 557.109009,211.580994 558.301514,210.328156 
	C557.994690,209.999390 557.981750,210.081055 558.301025,210.365784 
	C568.140320,205.627899 577.660400,200.605255 587.180481,195.582626 
	C587.139526,195.201675 587.098633,194.820724 587.057678,194.439774 
	C586.045898,194.266129 585.034058,194.092468 584.016235,193.955154 
	C584.010254,193.991486 584.083496,193.999252 584.345337,193.698227 
	C583.082275,192.244507 581.557312,191.091812 580.020386,189.969864 
	C580.008362,190.000610 580.067688,189.971481 579.948364,189.644165 
	C578.552124,188.361786 577.275208,187.406708 575.980835,186.330643 
	C575.963501,186.209656 575.549133,185.999908 575.256104,185.720673 
	C574.311096,183.531586 573.286987,181.654678 573.114258,179.702454 
	C572.949036,177.835007 573.749390,175.899063 573.984924,173.976044 
	C574.678162,168.316437 575.396484,162.657074 575.921204,156.980621 
	C576.309082,152.784378 576.409119,148.561539 576.664734,143.845673 
	C563.835083,147.395920 552.105957,150.804932 540.282104,153.845398 
	C534.274841,155.390121 528.096863,156.271118 521.980042,157.330826 
	C521.963989,157.209503 521.549561,156.999207 521.279541,156.754990 
	C519.338989,155.157806 517.668335,153.804840 515.908203,152.261780 
	C515.395630,151.714203 514.972595,151.356720 514.279541,150.755081 
	C512.339111,149.157715 510.668701,147.804520 508.981323,146.330109 
	C508.964417,146.208893 508.549500,145.999207 508.279572,145.755035 
	C506.339172,144.157684 504.668732,142.804489 502.981323,141.330109 
	C502.964386,141.208908 502.549530,140.999222 502.278564,140.753967 
	C500.639435,139.203705 499.271301,137.898666 497.075714,135.804367 
	C495.977600,140.042084 495.011292,143.077560 494.419250,146.184357 
	C492.538513,156.053528 490.797272,165.949280 489.002167,175.834778 
z"/>
<path fill="#FA8100" opacity="1.000000" stroke="none" 
	d="
M508.549500,145.999207 
	C508.549500,145.999207 508.964417,146.208893 508.611389,146.648987 
	C510.355438,148.392471 512.452515,149.695862 514.549561,150.999237 
	C514.972595,151.356720 515.395630,151.714203 515.538574,152.580109 
	C517.355530,154.392120 519.452515,155.695663 521.549561,156.999207 
	C521.549561,156.999207 521.963989,157.209503 521.612000,157.653702 
	C522.564087,158.533722 524.026794,159.595596 525.148376,159.311340 
	C541.692444,155.118195 558.191223,150.746170 575.177307,146.291595 
	C574.750122,149.187378 574.302246,151.720001 574.013489,154.270645 
	C573.004272,163.185577 572.129578,172.116501 571.036926,181.020859 
	C570.575623,184.780533 571.452698,185.942291 575.549133,185.999908 
	C575.549133,185.999908 575.963501,186.209656 575.610962,186.649139 
	C576.861511,188.049576 578.464600,189.010529 580.067688,189.971481 
	C580.067688,189.971481 580.008362,190.000610 579.718384,190.243530 
	C580.980042,191.657379 582.531799,192.828323 584.083496,193.999252 
	C584.083496,193.999252 584.010254,193.991486 583.933472,194.301819 
	C580.267700,196.736374 576.670166,198.846481 573.091553,200.988190 
	C568.047607,204.006866 563.017700,207.048965 557.981750,210.081055 
	C557.981750,210.081055 557.994690,209.999390 558.035828,210.000488 
	C555.839478,210.819138 553.602051,211.636703 550.805420,212.658585 
	C550.805420,200.404404 550.805420,188.430466 550.402710,176.308212 
	C530.309021,176.098694 510.618011,176.037491 490.636230,175.556656 
	C492.747131,163.452133 495.148773,151.767258 497.472900,140.459320 
	C499.374390,140.661545 500.961975,140.830383 502.549530,140.999222 
	C502.549530,140.999222 502.964386,141.208908 502.611389,141.649002 
	C504.355438,143.392471 506.452454,144.695831 508.549500,145.999207 
z"/>
<path fill="#000000" opacity="1.000000" stroke="none" 
	d="
M513.834412,429.009491 
	C513.889587,446.151550 513.983093,463.293579 513.992432,480.435669 
	C514.015503,522.715942 514.000000,564.996155 514.000000,607.979004 
	C450.933624,607.979004 387.934692,607.979004 324.475220,607.549011 
	C326.288422,604.633789 328.424591,602.003967 330.859253,599.688049 
	C342.293182,588.811707 353.808014,578.020386 365.295929,567.200806 
	C382.467224,551.028442 399.640961,534.858765 416.812286,518.686523 
	C428.300232,507.866943 439.817719,497.078522 451.264099,486.215210 
	C465.730194,472.486023 480.124939,458.681732 494.576874,444.937622 
	C499.630798,440.131226 504.710297,435.348328 509.905457,430.696930 
	C510.911896,429.795807 512.509521,429.554932 513.834412,429.009491 
z"/>
<path fill="#868686" opacity="1.000000" stroke="none" 
	d="
M129.169327,598.023071 
	C129.132126,590.300354 129.094925,582.577698 129.444626,574.389648 
	C133.261505,571.075623 136.835083,568.381287 140.095520,565.350220 
	C151.530579,554.719421 162.863327,543.978455 174.224609,533.268311 
	C191.872345,516.632080 209.504471,499.979248 227.156952,483.348022 
	C238.157700,472.983643 249.195129,462.658203 260.195953,452.293884 
	C277.848480,435.662720 295.477264,419.006348 313.129791,402.375153 
	C324.130615,392.010864 335.167786,381.685181 346.168579,371.320862 
	C363.821136,354.689697 381.450012,338.033417 399.102570,321.402222 
	C410.103363,311.037903 421.168854,300.741974 432.134094,290.340302 
	C446.723663,276.500610 461.197083,262.538422 475.812195,248.725952 
	C484.013428,240.975037 492.476868,233.501160 500.659027,225.730682 
	C503.375122,223.151230 505.582764,220.036346 508.022888,217.166260 
	C509.810913,217.166275 511.598969,217.166275 513.986267,217.166275 
	C513.986267,223.911026 513.986267,230.505295 513.575562,237.597565 
	C508.557373,242.117508 503.841492,246.022842 499.363647,250.184265 
	C488.051666,260.696808 476.841339,271.318756 465.600250,281.907471 
	C448.193390,298.304138 430.794647,314.709412 413.392700,331.111298 
	C401.791412,342.045898 390.193268,352.983795 378.588623,363.914825 
	C367.226288,374.617584 355.853699,385.309509 344.492462,396.013428 
	C327.087097,412.411652 309.691162,428.819946 292.284332,445.216644 
	C281.043274,455.805359 269.784485,466.375244 258.543427,476.963989 
	C246.817688,488.009247 235.108810,499.072388 223.383179,510.117798 
	C212.142197,520.706543 200.843887,531.234924 189.652451,541.875854 
	C174.238510,556.531555 158.963226,571.333740 143.492981,585.929443 
	C138.954773,590.211121 133.956619,594.005371 129.169327,598.023071 
z"/>
<path fill="#757575" opacity="1.000000" stroke="none" 
	d="
M129.112854,598.477417 
	C133.956619,594.005371 138.954773,590.211121 143.492981,585.929443 
	C158.963226,571.333740 174.238510,556.531555 189.652451,541.875854 
	C200.843887,531.234924 212.142197,520.706543 223.383179,510.117798 
	C235.108810,499.072388 246.817688,488.009247 258.543427,476.963989 
	C269.784485,466.375244 281.043274,455.805359 292.284332,445.216644 
	C309.691162,428.819946 327.087097,412.411652 344.492462,396.013428 
	C355.853699,385.309509 367.226288,374.617584 378.588623,363.914825 
	C390.193268,352.983795 401.791412,342.045898 413.392700,331.111298 
	C430.794647,314.709412 448.193390,298.304138 465.600250,281.907471 
	C476.841339,271.318756 488.051666,260.696808 499.363647,250.184265 
	C503.841492,246.022842 508.557373,242.117508 513.497375,238.061005 
	C513.881592,245.715027 513.933228,253.403610 513.566162,261.593323 
	C511.378296,263.284546 509.434723,264.282227 507.871735,265.699646 
	C502.459564,270.607697 497.168945,275.650208 491.851715,280.662354 
	C474.203705,297.297791 456.567780,313.945953 438.920288,330.581879 
	C427.559143,341.291779 416.184082,351.986877 404.818451,362.692017 
	C387.527588,378.978058 370.240662,395.268311 352.949768,411.554382 
	C341.584137,422.259521 330.211517,432.957184 318.847382,443.663910 
	C301.437592,460.066528 284.035553,476.477386 266.624146,492.878326 
	C255.380203,503.469788 244.116837,514.040649 232.877365,524.636841 
	C215.109528,541.387817 197.353027,558.150818 179.594330,574.911499 
	C169.205566,584.716431 158.797150,594.500854 148.482925,604.383667 
	C147.654816,605.177063 147.491287,606.664124 147.018936,607.828857 
	C141.236740,607.828857 135.454544,607.828857 129.056396,607.828857 
	C129.056396,604.776978 129.056396,601.854309 129.112854,598.477417 
z"/>
<path fill="#676767" opacity="1.000000" stroke="none" 
	d="
M147.482834,607.889771 
	C147.491287,606.664124 147.654816,605.177063 148.482925,604.383667 
	C158.797150,594.500854 169.205566,584.716431 179.594330,574.911499 
	C197.353027,558.150818 215.109528,541.387817 232.877365,524.636841 
	C244.116837,514.040649 255.380203,503.469788 266.624146,492.878326 
	C284.035553,476.477386 301.437592,460.066528 318.847382,443.663910 
	C330.211517,432.957184 341.584137,422.259521 352.949768,411.554382 
	C370.240662,395.268311 387.527588,378.978058 404.818451,362.692017 
	C416.184082,351.986877 427.559143,341.291779 438.920288,330.581879 
	C456.567780,313.945953 474.203705,297.297791 491.851715,280.662354 
	C497.168945,275.650208 502.459564,270.607697 507.871735,265.699646 
	C509.434723,264.282227 511.378296,263.284546 513.487793,262.057373 
	C513.883118,270.042480 513.938110,278.064667 513.561035,286.550842 
	C507.952667,291.309357 502.590057,295.400665 497.638000,299.939819 
	C486.616089,310.042664 475.785248,320.354370 464.902618,330.608551 
	C447.123871,347.360565 429.374634,364.143829 411.595886,380.895813 
	C400.713165,391.149994 389.784302,401.355133 378.901642,411.609344 
	C361.122925,428.361359 343.373749,445.144714 325.595032,461.896729 
	C314.712341,472.150909 303.783447,482.356018 292.900757,492.610199 
	C275.122040,509.362213 257.328491,526.098694 239.611694,542.916016 
	C229.840118,552.191467 220.288483,561.699036 210.493774,570.949524 
	C203.497910,577.556580 196.074783,583.717712 189.192856,590.436829 
	C183.532761,595.963074 178.388214,602.017334 173.015167,607.837524 
	C164.659027,607.875244 156.302872,607.913025 147.482834,607.889771 
z"/>
<path fill="#BEBEBE" opacity="1.000000" stroke="none" 
	d="
M412.039642,217.112030 
	C421.060486,217.082504 430.081299,217.052979 439.551697,217.436905 
	C438.581848,219.812225 437.434937,222.065140 435.699677,223.689590 
	C422.738281,235.823059 409.623352,247.792374 396.630310,259.892365 
	C385.329651,270.416351 374.120667,281.038849 362.879822,291.627075 
	C345.473358,308.023010 328.077423,324.430145 310.671021,340.826172 
	C299.430267,351.414429 288.169098,361.981018 276.934265,372.575562 
	C259.052643,389.438080 241.195847,406.326904 223.308044,423.182892 
	C212.553940,433.316742 201.720703,443.366913 190.995209,453.530823 
	C176.644928,467.129852 162.377380,480.816132 148.047134,494.436371 
	C143.114258,499.124878 138.153275,503.787476 133.077713,508.319183 
	C132.063614,509.224640 130.470322,509.481384 129.144104,510.037231 
	C129.114899,501.681396 129.085678,493.325592 129.416382,484.451324 
	C130.349655,483.613037 131.016037,483.393158 131.482925,482.958832 
	C146.438889,469.046295 161.389008,455.127350 176.310699,441.178009 
	C187.231430,430.968933 198.127625,420.733459 209.005142,410.478363 
	C227.017822,393.496429 244.994415,376.476227 263.010101,359.497467 
	C273.647095,349.472748 284.350739,339.518707 294.987701,329.493958 
	C313.003418,312.515228 331.021759,295.539124 348.976074,278.495605 
	C358.503815,269.451202 367.823822,260.187469 377.379242,251.172882 
	C384.377289,244.570953 391.767120,238.379929 398.676117,231.689545 
	C403.403290,227.111954 407.603729,221.990417 412.039642,217.112030 
z"/>
<path fill="#AEAEAE" opacity="1.000000" stroke="none" 
	d="
M129.101562,510.500854 
	C130.470322,509.481384 132.063614,509.224640 133.077713,508.319183 
	C138.153275,503.787476 143.114258,499.124878 148.047134,494.436371 
	C162.377380,480.816132 176.644928,467.129852 190.995209,453.530823 
	C201.720703,443.366913 212.553940,433.316742 223.308044,423.182892 
	C241.195847,406.326904 259.052643,389.438080 276.934265,372.575562 
	C288.169098,361.981018 299.430267,351.414429 310.671021,340.826172 
	C328.077423,324.430145 345.473358,308.023010 362.879822,291.627075 
	C374.120667,281.038849 385.329651,270.416351 396.630310,259.892365 
	C409.623352,247.792374 422.738281,235.823059 435.699677,223.689590 
	C437.434937,222.065140 438.581848,219.812225 440.019226,217.497192 
	C448.389648,217.103195 456.742096,217.062363 465.545593,217.443420 
	C464.193878,219.880707 462.524384,222.036896 460.567444,223.889420 
	C443.203949,240.326263 425.789429,256.709167 408.390198,273.108307 
	C396.790680,284.041016 385.194305,294.976990 373.591766,305.906433 
	C356.430206,322.072418 339.263794,338.233246 322.100677,354.397552 
	C310.618195,365.211761 299.135162,376.025360 287.657227,386.844421 
	C270.137512,403.358307 252.627274,419.882324 235.102753,436.391144 
	C223.985092,446.864441 212.814407,457.281738 201.729385,467.789429 
	C187.503708,481.274261 173.338547,494.822937 159.150528,508.347504 
	C151.815567,515.339478 144.563354,522.421082 137.112534,529.287109 
	C134.724640,531.487671 131.819901,533.127441 129.151642,535.023743 
	C129.120758,527.004028 129.089890,518.984253 129.101562,510.500854 
z"/>
<path fill="#959595" opacity="1.000000" stroke="none" 
	d="
M507.557739,217.091965 
	C505.582764,220.036346 503.375122,223.151230 500.659027,225.730682 
	C492.476868,233.501160 484.013428,240.975037 475.812195,248.725952 
	C461.197083,262.538422 446.723663,276.500610 432.134094,290.340302 
	C421.168854,300.741974 410.103363,311.037903 399.102570,321.402222 
	C381.450012,338.033417 363.821136,354.689697 346.168579,371.320862 
	C335.167786,381.685181 324.130615,392.010864 313.129791,402.375153 
	C295.477264,419.006348 277.848480,435.662720 260.195953,452.293884 
	C249.195129,462.658203 238.157700,472.983643 227.156952,483.348022 
	C209.504471,499.979248 191.872345,516.632080 174.224609,533.268311 
	C162.863327,543.978455 151.530579,554.719421 140.095520,565.350220 
	C136.835083,568.381287 133.261505,571.075623 129.499023,573.973633 
	C129.129944,567.331604 129.093384,560.640320 129.444870,553.435669 
	C138.005661,545.663452 146.325989,538.563171 154.320908,531.113647 
	C171.945251,514.691650 189.403641,498.091461 206.933319,481.567780 
	C218.417740,470.742340 229.906815,459.921814 241.396591,449.102051 
	C252.765167,438.396423 264.141052,427.698547 275.506897,416.990051 
	C292.919312,400.584778 310.322296,384.169495 327.736206,367.765778 
	C338.981812,357.172516 350.245392,346.598328 361.490997,336.005066 
	C378.904938,319.601349 396.353668,303.234314 413.706543,286.766235 
	C429.261536,272.004364 444.654297,257.071442 460.224579,242.325882 
	C467.330750,235.596130 474.763123,229.210999 481.878052,222.490158 
	C483.317841,221.130112 483.995087,218.962799 485.023926,217.167679 
	C492.380157,217.117676 499.736359,217.067673 507.557739,217.091965 
z"/>
<path fill="#D0D0D0" opacity="1.000000" stroke="none" 
	d="
M411.584747,217.062531 
	C407.603729,221.990417 403.403290,227.111954 398.676117,231.689545 
	C391.767120,238.379929 384.377289,244.570953 377.379242,251.172882 
	C367.823822,260.187469 358.503815,269.451202 348.976074,278.495605 
	C331.021759,295.539124 313.003418,312.515228 294.987701,329.493958 
	C284.350739,339.518707 273.647095,349.472748 263.010101,359.497467 
	C244.994415,376.476227 227.017822,393.496429 209.005142,410.478363 
	C198.127625,420.733459 187.231430,430.968933 176.310699,441.178009 
	C161.389008,455.127350 146.438889,469.046295 131.482925,482.958832 
	C131.016037,483.393158 130.349655,483.613037 129.443542,483.985931 
	C129.088333,475.677979 129.065872,467.317017 129.398682,458.445190 
	C130.329803,457.619476 131.001831,457.407990 131.467590,456.974762 
	C146.426636,443.061310 161.379288,429.140961 176.303284,415.189941 
	C187.225723,404.979614 198.123154,394.742432 209.002182,384.485840 
	C227.017303,367.501465 244.999725,350.482391 263.013336,333.496399 
	C274.012634,323.124603 285.054321,312.797791 296.059509,302.432251 
	C313.597870,285.913300 331.116425,269.373322 348.653534,252.853073 
	C359.658051,242.486649 370.719879,232.180435 381.640778,221.726837 
	C382.829620,220.588913 383.253662,218.651993 384.032440,217.085678 
	C393.064911,217.061462 402.097382,217.037247 411.584747,217.062531 
z"/>
<path fill="#A0A0A0" opacity="1.000000" stroke="none" 
	d="
M484.558411,217.096893 
	C483.995087,218.962799 483.317841,221.130112 481.878052,222.490158 
	C474.763123,229.210999 467.330750,235.596130 460.224579,242.325882 
	C444.654297,257.071442 429.261536,272.004364 413.706543,286.766235 
	C396.353668,303.234314 378.904938,319.601349 361.490997,336.005066 
	C350.245392,346.598328 338.981812,357.172516 327.736206,367.765778 
	C310.322296,384.169495 292.919312,400.584778 275.506897,416.990051 
	C264.141052,427.698547 252.765167,438.396423 241.396591,449.102051 
	C229.906815,459.921814 218.417740,470.742340 206.933319,481.567780 
	C189.403641,498.091461 171.945251,514.691650 154.320908,531.113647 
	C146.325989,538.563171 138.005661,545.663452 129.499313,552.971313 
	C129.127808,547.330872 129.089935,541.641296 129.101837,535.487671 
	C131.819901,533.127441 134.724640,531.487671 137.112534,529.287109 
	C144.563354,522.421082 151.815567,515.339478 159.150528,508.347504 
	C173.338547,494.822937 187.503708,481.274261 201.729385,467.789429 
	C212.814407,457.281738 223.985092,446.864441 235.102753,436.391144 
	C252.627274,419.882324 270.137512,403.358307 287.657227,386.844421 
	C299.135162,376.025360 310.618195,365.211761 322.100677,354.397552 
	C339.263794,338.233246 356.430206,322.072418 373.591766,305.906433 
	C385.194305,294.976990 396.790680,284.041016 408.390198,273.108307 
	C425.789429,256.709167 443.203949,240.326263 460.567444,223.889420 
	C462.524384,222.036896 464.193878,219.880707 466.011810,217.509125 
	C472.048950,217.110657 478.070892,217.068390 484.558411,217.096893 
z"/>
<path fill="#191919" opacity="1.000000" stroke="none" 
	d="
M307.010864,607.841553 
	C297.654144,607.884888 288.297485,607.928223 278.514648,607.569153 
	C278.998444,606.004944 279.776367,604.703125 280.838104,603.702393 
	C297.148682,588.328491 313.505615,573.003784 329.832031,557.646606 
	C341.686188,546.496094 353.509613,535.312866 365.349670,524.147278 
	C382.867523,507.627319 400.382660,491.104492 417.909180,474.593750 
	C429.028107,464.119202 440.202545,453.703308 451.285645,443.191071 
	C465.750488,429.471313 480.137024,415.669067 494.583740,401.930115 
	C499.635834,397.125549 504.713379,392.344299 509.906921,387.694977 
	C510.912262,386.794983 512.510376,386.557190 513.835083,386.013916 
	C513.891724,394.704193 513.948364,403.394470 513.567810,412.547546 
	C511.872925,413.718781 510.415680,414.212738 509.388336,415.168701 
	C498.319794,425.468445 487.316132,435.837921 476.300415,446.194427 
	C465.042053,456.779083 453.784668,467.364807 442.536621,477.960449 
	C430.803650,489.012939 419.087372,500.083160 407.354462,511.135742 
	C396.106506,521.731384 384.801117,532.266663 373.602783,542.914429 
	C358.179260,557.579773 342.838348,572.331970 327.441986,587.025940 
	C326.248352,588.165161 324.774872,589.022400 323.639954,590.209900 
	C318.058258,596.050232 312.546997,601.957764 307.010864,607.841553 
z"/>
<path fill="#292929" opacity="1.000000" stroke="none" 
	d="
M513.917725,385.551483 
	C512.510376,386.557190 510.912262,386.794983 509.906921,387.694977 
	C504.713379,392.344299 499.635834,397.125549 494.583740,401.930115 
	C480.137024,415.669067 465.750488,429.471313 451.285645,443.191071 
	C440.202545,453.703308 429.028107,464.119202 417.909180,474.593750 
	C400.382660,491.104492 382.867523,507.627319 365.349670,524.147278 
	C353.509613,535.312866 341.686188,546.496094 329.832031,557.646606 
	C313.505615,573.003784 297.148682,588.328491 280.838104,603.702393 
	C279.776367,604.703125 278.998444,606.004944 278.051392,607.500488 
	C270.322510,607.880005 262.630768,607.925842 254.513718,607.569031 
	C255.233536,605.769775 256.242584,604.229309 257.544403,602.998413 
	C274.670349,586.806519 291.836365,570.657043 308.994751,554.499512 
	C320.352966,543.803833 331.723389,533.121155 343.073456,522.416809 
	C360.945862,505.561310 378.795288,488.681427 396.674835,471.833527 
	C407.424042,461.704590 418.234222,451.640350 428.977661,441.505310 
	C447.331757,424.190613 465.675018,406.864258 483.982208,389.499939 
	C492.539185,381.383636 500.963074,373.126617 509.553833,365.046600 
	C510.649170,364.016388 512.390869,363.673401 513.833252,363.012085 
	C513.888916,370.371063 513.944641,377.730072 513.917725,385.551483 
z"/>
<path fill="#353535" opacity="1.000000" stroke="none" 
	d="
M513.913940,362.549042 
	C512.390869,363.673401 510.649170,364.016388 509.553833,365.046600 
	C500.963074,373.126617 492.539185,381.383636 483.982208,389.499939 
	C465.675018,406.864258 447.331757,424.190613 428.977661,441.505310 
	C418.234222,451.640350 407.424042,461.704590 396.674835,471.833527 
	C378.795288,488.681427 360.945862,505.561310 343.073456,522.416809 
	C331.723389,533.121155 320.352966,543.803833 308.994751,554.499512 
	C291.836365,570.657043 274.670349,586.806519 257.544403,602.998413 
	C256.242584,604.229309 255.233536,605.769775 254.050415,607.499878 
	C247.321350,607.878662 240.630249,607.923889 233.478485,607.543091 
	C233.288788,606.356445 233.339264,605.358276 233.864044,604.871155 
	C240.915588,598.326294 248.102890,591.927063 255.120712,585.346802 
	C272.567017,568.988586 289.940430,552.552612 307.349182,536.154358 
	C318.591461,525.564575 329.852844,514.995178 341.090698,504.400696 
	C358.855957,487.652466 376.599792,470.881561 394.369781,454.138306 
	C405.247040,443.889465 416.181030,433.700745 427.045319,423.438171 
	C445.883270,405.643616 464.703796,387.830505 483.497223,369.988922 
	C491.935089,361.978485 500.243073,353.830597 508.729736,345.872772 
	C510.110382,344.578186 512.115295,343.949371 513.831665,343.012817 
	C513.886047,349.370544 513.940369,355.728302 513.913940,362.549042 
z"/>
<path fill="#5A5A5A" opacity="1.000000" stroke="none" 
	d="
M173.476654,607.900696 
	C178.388214,602.017334 183.532761,595.963074 189.192856,590.436829 
	C196.074783,583.717712 203.497910,577.556580 210.493774,570.949524 
	C220.288483,561.699036 229.840118,552.191467 239.611694,542.916016 
	C257.328491,526.098694 275.122040,509.362213 292.900757,492.610199 
	C303.783447,482.356018 314.712341,472.150909 325.595032,461.896729 
	C343.373749,445.144714 361.122925,428.361359 378.901642,411.609344 
	C389.784302,401.355133 400.713165,391.149994 411.595886,380.895813 
	C429.374634,364.143829 447.123871,347.360565 464.902618,330.608551 
	C475.785248,320.354370 486.616089,310.042664 497.638000,299.939819 
	C502.590057,295.400665 507.952667,291.309357 513.483643,287.014709 
	C513.886841,291.373383 513.935242,295.732178 513.573853,300.589844 
	C509.382080,304.288574 505.455566,307.333893 501.842743,310.714447 
	C484.503174,326.939423 467.249634,343.256348 449.963196,359.538086 
	C438.600494,370.240387 427.226990,380.931274 415.870270,391.639923 
	C398.108490,408.388123 380.365601,425.156311 362.597504,441.897797 
	C351.721344,452.145599 340.781158,462.325531 329.926270,472.595734 
	C310.379059,491.089966 290.866150,509.620514 271.356049,528.153931 
	C263.645721,535.478333 255.997482,542.867981 248.290787,550.196228 
	C241.911331,556.262451 235.521988,562.319092 229.076141,568.314575 
	C215.953491,580.520325 202.777206,592.668518 189.674026,604.895142 
	C188.889526,605.627136 188.554291,606.840698 188.009979,607.830200 
	C183.319382,607.874756 178.628769,607.919312 173.476654,607.900696 
z"/>
<path fill="#E8E8E8" opacity="1.000000" stroke="none" 
	d="
M343.019104,217.023224 
	C350.373901,217.018631 357.728729,217.014023 365.538696,217.382950 
	C365.663818,218.475021 365.511810,219.383026 364.977966,219.884674 
	C347.176697,236.612015 329.325470,253.286163 311.511383,269.999878 
	C299.876099,280.916473 288.286072,291.881287 276.677368,302.826202 
	C259.143066,319.357880 241.615540,335.896729 224.074799,352.421570 
	C212.946854,362.905060 201.753250,373.319275 190.673264,383.853119 
	C175.246414,398.519531 159.966965,413.341583 144.476334,427.939911 
	C139.575134,432.558746 134.199890,436.674561 129.041565,441.020569 
	C129.033340,433.998138 129.025116,426.975677 129.362610,419.445312 
	C138.838791,410.759735 148.069473,402.690613 157.074570,394.377167 
	C168.549683,383.783478 179.844238,372.994141 191.213287,362.285614 
	C208.509399,345.994354 225.801392,329.698761 243.097488,313.407501 
	C254.466537,302.698975 265.880798,292.038025 277.201080,281.278198 
	C292.384857,266.846222 307.489716,252.331238 322.652161,237.876724 
	C324.207123,236.394363 326.065887,235.216553 327.539276,233.665314 
	C332.756531,228.172379 337.867706,222.578705 343.019104,217.023224 
z"/>
<path fill="#4A4A4A" opacity="1.000000" stroke="none" 
	d="
M217.008484,607.834473 
	C211.983368,607.878845 206.958237,607.923157 201.511017,607.565125 
	C202.118805,605.882996 203.024353,604.473633 204.199493,603.345093 
	C210.312408,597.474121 216.476868,591.656433 222.655502,585.854370 
	C233.070190,576.074463 243.535965,566.348877 253.931808,556.549011 
	C272.191956,539.335693 290.400238,522.067383 308.660400,504.854004 
	C319.056213,495.054169 329.537659,485.345215 339.934906,475.546875 
	C358.076385,458.450470 376.171967,441.305359 394.307617,424.202759 
	C405.186218,413.943817 416.122131,403.745605 427.000610,393.486542 
	C445.136047,376.383698 463.273285,359.282623 481.355408,342.123505 
	C490.524353,333.422577 499.530792,324.550079 508.725708,315.877075 
	C510.102905,314.578064 512.111694,313.948669 513.828369,313.009521 
	C513.881836,317.701904 513.935303,322.394257 513.576355,327.587158 
	C510.440826,330.229218 507.541229,332.182495 505.022858,334.542572 
	C487.321594,351.131134 469.705719,367.810791 452.048553,384.446442 
	C441.044891,394.813538 430.002045,405.139069 419.002838,415.510895 
	C400.989288,432.496918 383.009064,449.518311 364.990997,466.499481 
	C354.352570,476.525696 343.645203,486.478668 333.009674,496.507904 
	C314.754120,513.722839 296.505157,530.944946 278.304260,548.217651 
	C269.257111,556.803345 260.397278,565.587097 251.313522,574.133240 
	C244.305313,580.726746 236.921616,586.925659 230.007156,593.612549 
	C225.399231,598.068848 221.322800,603.074646 217.008484,607.834473 
z"/>
<path fill="#414141" opacity="1.000000" stroke="none" 
	d="
M217.470367,607.903748 
	C221.322800,603.074646 225.399231,598.068848 230.007156,593.612549 
	C236.921616,586.925659 244.305313,580.726746 251.313522,574.133240 
	C260.397278,565.587097 269.257111,556.803345 278.304260,548.217651 
	C296.505157,530.944946 314.754120,513.722839 333.009674,496.507904 
	C343.645203,486.478668 354.352570,476.525696 364.990997,466.499481 
	C383.009064,449.518311 400.989288,432.496918 419.002838,415.510895 
	C430.002045,405.139069 441.044891,394.813538 452.048553,384.446442 
	C469.705719,367.810791 487.321594,351.131134 505.022858,334.542572 
	C507.541229,332.182495 510.440826,330.229218 513.499146,328.048157 
	C513.886902,332.702759 513.939392,337.396881 513.911804,342.551910 
	C512.115295,343.949371 510.110382,344.578186 508.729736,345.872772 
	C500.243073,353.830597 491.935089,361.978485 483.497223,369.988922 
	C464.703796,387.830505 445.883270,405.643616 427.045319,423.438171 
	C416.181030,433.700745 405.247040,443.889465 394.369781,454.138306 
	C376.599792,470.881561 358.855957,487.652466 341.090698,504.400696 
	C329.852844,514.995178 318.591461,525.564575 307.349182,536.154358 
	C289.940430,552.552612 272.567017,568.988586 255.120712,585.346802 
	C248.102890,591.927063 240.915588,598.326294 233.864044,604.871155 
	C233.339264,605.358276 233.288788,606.356445 233.015182,607.474731 
	C227.985794,607.879333 222.959030,607.926147 217.470367,607.903748 
z"/>
<path fill="#DCDCDC" opacity="1.000000" stroke="none" 
	d="
M129.030838,441.486084 
	C134.199890,436.674561 139.575134,432.558746 144.476334,427.939911 
	C159.966965,413.341583 175.246414,398.519531 190.673264,383.853119 
	C201.753250,373.319275 212.946854,362.905060 224.074799,352.421570 
	C241.615540,335.896729 259.143066,319.357880 276.677368,302.826202 
	C288.286072,291.881287 299.876099,280.916473 311.511383,269.999878 
	C329.325470,253.286163 347.176697,236.612015 364.977966,219.884674 
	C365.511810,219.383026 365.663818,218.475021 366.008484,217.400192 
	C371.712616,217.034439 377.402161,217.024963 383.562073,217.050598 
	C383.253662,218.651993 382.829620,220.588913 381.640778,221.726837 
	C370.719879,232.180435 359.658051,242.486649 348.653534,252.853073 
	C331.116425,269.373322 313.597870,285.913300 296.059509,302.432251 
	C285.054321,312.797791 274.012634,323.124603 263.013336,333.496399 
	C244.999725,350.482391 227.017303,367.501465 209.002182,384.485840 
	C198.123154,394.742432 187.225723,404.979614 176.303284,415.189941 
	C161.379288,429.140961 146.426636,443.061310 131.467590,456.974762 
	C131.001831,457.407990 130.329803,457.619476 129.418274,457.981384 
	C129.061768,452.669495 129.040939,447.310577 129.030838,441.486084 
z"/>
<path fill="#515151" opacity="1.000000" stroke="none" 
	d="
M513.904968,312.553864 
	C512.111694,313.948669 510.102905,314.578064 508.725708,315.877075 
	C499.530792,324.550079 490.524353,333.422577 481.355408,342.123505 
	C463.273285,359.282623 445.136047,376.383698 427.000610,393.486542 
	C416.122131,403.745605 405.186218,413.943817 394.307617,424.202759 
	C376.171967,441.305359 358.076385,458.450470 339.934906,475.546875 
	C329.537659,485.345215 319.056213,495.054169 308.660400,504.854004 
	C290.400238,522.067383 272.191956,539.335693 253.931808,556.549011 
	C243.535965,566.348877 233.070190,576.074463 222.655502,585.854370 
	C216.476868,591.656433 210.312408,597.474121 204.199493,603.345093 
	C203.024353,604.473633 202.118805,605.882996 201.049286,607.495728 
	C196.982071,607.874146 192.954483,607.919678 188.468430,607.897705 
	C188.554291,606.840698 188.889526,605.627136 189.674026,604.895142 
	C202.777206,592.668518 215.953491,580.520325 229.076141,568.314575 
	C235.521988,562.319092 241.911331,556.262451 248.290787,550.196228 
	C255.997482,542.867981 263.645721,535.478333 271.356049,528.153931 
	C290.866150,509.620514 310.379059,491.089966 329.926270,472.595734 
	C340.781158,462.325531 351.721344,452.145599 362.597504,441.897797 
	C380.365601,425.156311 398.108490,408.388123 415.870270,391.639923 
	C427.226990,380.931274 438.600494,370.240387 449.963196,359.538086 
	C467.249634,343.256348 484.503174,326.939423 501.842743,310.714447 
	C505.455566,307.333893 509.382080,304.288574 513.497253,301.049500 
	C513.880859,304.706207 513.931213,308.402222 513.904968,312.553864 
z"/>
<path fill="#F4F4F4" opacity="1.000000" stroke="none" 
	d="
M342.551270,217.013809 
	C337.867706,222.578705 332.756531,228.172379 327.539276,233.665314 
	C326.065887,235.216553 324.207123,236.394363 322.652161,237.876724 
	C307.489716,252.331238 292.384857,266.846222 277.201080,281.278198 
	C265.880798,292.038025 254.466537,302.698975 243.097488,313.407501 
	C225.801392,329.698761 208.509399,345.994354 191.213287,362.285614 
	C179.844238,372.994141 168.549683,383.783478 157.074570,394.377167 
	C148.069473,402.690613 138.838791,410.759735 129.365356,418.977905 
	C127.113380,409.265808 131.094116,402.415344 138.354858,395.863739 
	C157.210388,378.850006 175.391235,361.089081 193.864410,343.650818 
	C204.848740,333.281860 215.888077,322.971191 226.882599,312.613037 
	C244.525101,295.991730 262.147400,279.348999 279.785187,262.722687 
	C291.140015,252.018997 302.496063,241.316498 313.874847,230.638245 
	C318.108276,226.665451 322.314972,222.653809 326.736389,218.898285 
	C327.988922,217.834381 329.925110,217.217056 331.601898,217.085602 
	C335.076538,216.813187 338.587463,217.004028 342.551270,217.013809 
z"/>
<path fill="#0C0C0C" opacity="1.000000" stroke="none" 
	d="
M307.473236,607.911316 
	C312.546997,601.957764 318.058258,596.050232 323.639954,590.209900 
	C324.774872,589.022400 326.248352,588.165161 327.441986,587.025940 
	C342.838348,572.331970 358.179260,557.579773 373.602783,542.914429 
	C384.801117,532.266663 396.106506,521.731384 407.354462,511.135742 
	C419.087372,500.083160 430.803650,489.012939 442.536621,477.960449 
	C453.784668,467.364807 465.042053,456.779083 476.300415,446.194427 
	C487.316132,435.837921 498.319794,425.468445 509.388336,415.168701 
	C510.415680,414.212738 511.872925,413.718781 513.486084,413.010559 
	C513.893616,418.036255 513.945618,423.061676 513.916016,428.548309 
	C512.509521,429.554932 510.911896,429.795807 509.905457,430.696930 
	C504.710297,435.348328 499.630798,440.131226 494.576874,444.937622 
	C480.124939,458.681732 465.730194,472.486023 451.264099,486.215210 
	C439.817719,497.078522 428.300232,507.866943 416.812286,518.686523 
	C399.640961,534.858765 382.467224,551.028442 365.295929,567.200806 
	C353.808014,578.020386 342.293182,588.811707 330.859253,599.688049 
	C328.424591,602.003967 326.288422,604.633789 324.012146,607.476562 
	C318.651581,607.883179 313.293579,607.932129 307.473236,607.911316 
z"/>
<path fill="#000000" opacity="1.000000" stroke="none" 
	d="
M502.278564,140.753967 
	C500.961975,140.830383 499.374390,140.661545 497.472900,140.459320 
	C495.148773,151.767258 492.747131,163.452133 490.172424,175.485291 
	C489.833191,175.881042 489.667114,175.928497 489.251587,175.905365 
	C490.797272,165.949280 492.538513,156.053528 494.419250,146.184357 
	C495.011292,143.077560 495.977600,140.042084 497.075714,135.804367 
	C499.271301,137.898666 500.639435,139.203705 502.278564,140.753967 
z"/>
<path fill="#000000" opacity="1.000000" stroke="none" 
	d="
M575.256104,185.720673 
	C571.452698,185.942291 570.575623,184.780533 571.036926,181.020859 
	C572.129578,172.116501 573.004272,163.185577 574.013489,154.270645 
	C574.302246,151.720001 574.750122,149.187378 575.177307,146.291595 
	C558.191223,150.746170 541.692444,155.118195 525.148376,159.311340 
	C524.026794,159.595596 522.564087,158.533722 521.628052,157.775024 
	C528.096863,156.271118 534.274841,155.390121 540.282104,153.845398 
	C552.105957,150.804932 563.835083,147.395920 576.664734,143.845673 
	C576.409119,148.561539 576.309082,152.784378 575.921204,156.980621 
	C575.396484,162.657074 574.678162,168.316437 573.984924,173.976044 
	C573.749390,175.899063 572.949036,177.835007 573.114258,179.702454 
	C573.286987,181.654678 574.311096,183.531586 575.256104,185.720673 
z"/>
<path fill="#000000" opacity="1.000000" stroke="none" 
	d="
M558.301025,210.365784 
	C563.017700,207.048965 568.047607,204.006866 573.091553,200.988190 
	C576.670166,198.846481 580.267700,196.736374 583.939514,194.265488 
	C585.034058,194.092468 586.045898,194.266129 587.057678,194.439774 
	C587.098633,194.820724 587.139526,195.201675 587.180481,195.582626 
	C577.660400,200.605255 568.140320,205.627899 558.301025,210.365784 
z"/>
<path fill="#000000" opacity="1.000000" stroke="none" 
	d="
M508.279572,145.755035 
	C506.452454,144.695831 504.355438,143.392471 502.628326,141.770203 
	C504.668732,142.804489 506.339172,144.157684 508.279572,145.755035 
z"/>
<path fill="#000000" opacity="1.000000" stroke="none" 
	d="
M521.279541,156.754990 
	C519.452515,155.695663 517.355530,154.392120 515.628052,152.770218 
	C517.668335,153.804840 519.338989,155.157806 521.279541,156.754990 
z"/>
<path fill="#000000" opacity="1.000000" stroke="none" 
	d="
M514.279541,150.755081 
	C512.452515,149.695862 510.355438,148.392471 508.628326,146.770203 
	C510.668701,147.804520 512.339111,149.157715 514.279541,150.755081 
z"/>
<path fill="#000000" opacity="1.000000" stroke="none" 
	d="
M584.345337,193.698227 
	C582.531799,192.828323 580.980042,191.657379 579.730347,190.212769 
	C581.557312,191.091812 583.082275,192.244507 584.345337,193.698227 
z"/>
<path fill="#000000" opacity="1.000000" stroke="none" 
	d="
M579.948364,189.644165 
	C578.464600,189.010529 576.861511,188.049576 575.628296,186.770126 
	C577.275208,187.406708 578.552124,188.361786 579.948364,189.644165 
z"/>
</svg>